HIERARCHY
ROOT Hips
{
	OFFSET 0.00000 0.00000 0.00000
	CHANNELS 6 Xposition Yposition Zposition Yrotation Zrotation Xrotation 
	JOINT Lumbar
	{
		OFFSET 0 0 0
		CHANNELS 3 Zrotation Xrotation Yrotation
		JOINT Neck
		{
			OFFSET 0.00 0.2701 0.00
			CHANNELS 3 Zrotation Xrotation Yrotation
			End Site
			{
				OFFSET 0.00 0.1379 0.00
			}
		}
		JOINT RightShoulder
		{
			OFFSET 0.0119 0.2289 0.1181
			CHANNELS 3 Zrotation Xrotation Yrotation
			JOINT RightElbow
			{
				OFFSET 0.00 -0.1475 0.00
				CHANNELS 2 Zrotation Yrotation
				JOINT RightWrist
				{
					OFFSET 0.00 -0.1605 0.00
					CHANNELS 2 Zrotation Xrotation
					End Site
					{
						OFFSET 0.0040 -0.1068 0.0006
					}
				}
			}
		}
		JOINT LeftShoulder
		{
			OFFSET 0.0119 0.2289 -0.1181
			CHANNELS 3 Zrotation Xrotation Yrotation
			JOINT LeftElbow
			{
				OFFSET 0.00 -0.1475 0.00
				CHANNELS 2 Zrotation Yrotation
				JOINT LeftWrist
				{
					OFFSET 0.00 -0.1605 0.00
					CHANNELS 2 Zrotation Xrotation
					End Site
					{
						OFFSET 0.0040 -0.1068 -0.0006
					}
				}
			}
		}
	}
	JOINT RightHip
	{
		OFFSET 0.0316 -0.0424 0.0458
		CHANNELS 3 Zrotation Xrotation Yrotation
		JOINT RightKnee
		{
			OFFSET 0.00 -0.2438 0.00
			CHANNELS 1 Zrotation
			JOINT RightAnkle
			{
				OFFSET 0.00 -0.2449 0.00
				CHANNELS 3 Zrotation Xrotation Yrotation
				End Site
				{
					OFFSET 0.1237 -0.0542 0.0051
				}
			}
		}
	}
	JOINT LeftHip
	{
		OFFSET 0.0316 -0.0424 -0.0458
		CHANNELS 3 Zrotation Xrotation Yrotation
		JOINT LeftKnee
		{
			OFFSET 0.00 -0.2438 0.00
			CHANNELS 1 Zrotation
			JOINT LeftAnkle
			{
				OFFSET 0.00 -0.2449 0.00
				CHANNELS 3 Zrotation Xrotation Yrotation
				End Site
				{
					OFFSET 0.1237 -0.0542 -0.0051
				}
			}
		}
	}
}
MOTION
Frames: 30
Frame Time: 0.02
-1.53656 0.27012 -0.22384 901.14327 0 11.73564 -45.61032 10.50968 -8.56511 14.05323 -1.46763 -9.50576 46.88973 -26.37415 27.68719 92.74622 77.13746 -3.62004 1.71667 31.49853 13.03877 -35.46853 64.6014 -98.20087 -55.82471 5.02172 24.78674 -7.36436 -35.02407 -133.99593 18.28162 -20.42225 -16.56289 76.91115 31.16027 37.41959 -114.89557 12.17727 -5.44558 -13.8382
-1.53642 0.26996 -0.22343 900.91671 0 11.7927 -45.67756 10.46472 -8.28427 14.04406 -1.26263 -9.46028 48.27499 -24.89887 28.21376 94.84777 76.67636 -7.37692 1.0798 31.47611 12.68699 -35.01369 65.09991 -98.50705 -56.17038 5.04441 24.88375 -7.37551 -34.744 -134.01119 18.02977 -19.88929 -16.40879 76.84105 31.13433 37.53504 -114.91505 12.24921 -5.56065 -13.6416
-1.53583 0.26963 -0.22287 900.76161 0 11.84056 -45.90028 10.53111 -7.97483 14.13924 -1.00487 -9.38371 49.73623 -23.35032 28.15991 96.37685 76.376 -12.53812 -0.0199 31.50046 12.27577 -34.45692 65.8644 -98.8615 -56.5955 5.0697 25.0497 -7.42772 -34.55204 -134.05271 17.71477 -19.21833 -16.22358 76.81835 31.03774 37.70914 -114.88394 12.298 -5.67111 -13.40357
-1.53543 0.26936 -0.22239 900.57575 0 11.89094 -46.06148 10.55188 -7.68471 14.18877 -0.77184 -9.31311 51.12535 -21.85742 28.31895 98.1193 76.03408 -16.93376 -0.87638 31.50751 11.89924 -33.9536 66.50948 -99.18699 -56.98195 5.0933 25.18812 -7.45983 -34.32373 -134.08999 17.43792 -18.63002 -16.05866 76.78006 30.97436 37.85349 -114.87522 12.35733 -5.78101 -13.18309
-1.53511 0.26914 -0.22189 900.37937 0 11.94838 -46.18712 10.54988 -7.3646 14.22906 -0.5322 -9.27279 52.693 -20.26146 28.70284 100.06227 75.61428 -21.89521 -1.8729 31.50605 11.48297 -33.4187 67.14814 -99.54477 -57.38286 5.11928 25.31234 -7.49725 -34.07653 -134.09755 17.12165 -17.95868 -15.86775 76.71737 30.90644 38.01144 -114.86932 12.41708 -5.9031 -12.96485
-1.53452 0.26879 -0.22138 900.22368 0 11.99003 -46.42244 10.62242 -7.10182 14.31403 -0.29631 -9.16471 53.8959 -18.8705 28.47911 101.44674 75.38041 -26.00052 -2.68882 31.52984 11.13958 -32.92681 67.8633 -99.84529 -57.77007 5.1408 25.48193 -7.53488 -33.89075 -134.17214 16.87188 -17.42614 -15.72347 76.71623 30.83023 38.15477 -114.84508 12.47026 -5.99851 -12.73447
-1.53329 0.26813 -0.2209 900.15606 0 11.97619 -46.92473 10.87354 -6.9992 14.49708 -0.06841 -8.86328 54.11387 -18.01061 26.68989 101.47329 75.5406 -27.40359 -2.8728 31.61767 10.99438 -32.56821 68.72539 -99.98169 -58.11286 5.14978 25.75817 -7.54762 -33.85454 -134.42595 16.82698 -17.32279 -15.717 76.87652 30.76051 38.24339 -114.78688 12.51125 -6.01896 -12.46662
-1.53181 0.26734 -0.22042 900.12841 0 11.94903 -47.53127 11.1959 -6.9564 14.72165 0.15097 -8.4976 53.95244 -17.37071 24.31359 100.94854 75.8901 -27.89304 -2.86251 31.7273 10.92841 -32.25865 69.65452 -100.05756 -58.43634 5.15409 26.07748 -7.56163 -33.87733 -134.74563 16.85034 -17.36205 -15.75832 77.09633 30.6832 38.31509 -114.71124 12.54636 -6.013 -12.19102
-1.53045 0.26663 -0.21994 900.08756 0 11.93729 -48.08823 11.48613 -6.89031 14.92737 0.36372 -8.17095 53.93533 -16.66437 22.22286 100.64856 76.19427 -28.79144 -2.95368 31.82189 10.83893 -31.9333 70.5534 -100.15687 -58.75988 5.16021 26.3783 -7.58546 -33.87253 -135.03468 16.83835 -17.32746 -15.77676 77.28696 30.60105 38.39459 -114.64066 12.58387 -6.02055 -11.92829
-1.52904 0.26586 -0.21946 900.02894 0 11.88648 -48.65984 11.77995 -6.80767 15.1368 0.62191 -7.80215 54.03888 -15.81072 20.03015 100.44118 76.32627 -29.75991 -3.00484 31.93929 10.69572 -31.57608 71.46348 -100.27452 -59.12309 5.16767 26.67809 -7.5681 -33.87385 -135.32845 16.8415 -17.3244 -15.79884 77.4888 30.54969 38.4761 -114.5801 12.62156 -6.02162 -11.62404
-1.52767 0.26517 -0.21899 900.01496 0 11.91305 -49.22382 12.08081 -6.77289 15.3468 0.78373 -7.50571 53.80115 -15.32099 17.92136 99.91275 76.86837 -30.35435 -3.0879 32.0145 10.68251 -31.29933 72.35912 -100.33967 -59.398 5.17127 26.98797 -7.63472 -33.87553 -135.62665 16.83131 -17.29363 -15.82531 77.68013 30.43548 38.54812 -114.49559 12.658 -6.02996 -11.40571
-1.52648 0.26469 -0.21852 900.12275 0 12.16466 -49.7383 12.39134 -6.86651 15.54948 0.67238 -7.43054 52.7027 -15.75019 16.16083 98.67543 78.41625 -30.06774 -3.29771 31.96045 11.02266 -31.22384 73.22739 -100.26824 -59.43355 5.1649 27.32657 -7.94646 -33.86177 -135.92975 16.75818 -17.13269 -15.85078 77.83351 30.1308 38.6023 -114.34589 12.69059 -6.0648 -11.42003
-1.52533 0.2643 -0.21807 900.27243 0 12.49316 -50.24084 12.70453 -7.00445 15.75043 0.46574 -7.42977 51.276 -16.54444 14.51289 97.12911 80.38306 -29.44186 -3.54547 31.86428 11.4887 -31.22982 74.07189 -100.14703 -59.38046 5.15489 27.67138 -8.34008 -33.84639 -136.23339 16.6715 -16.94339 -15.87961 77.97301 29.76663 38.64656 -114.17352 12.7226 -6.10794 -11.52216
-1.52417 0.26388 -0.21763 900.39684 0 12.78111 -50.75046 13.01091 -7.115 15.95096 0.30852 -7.39106 50.00591 -17.19303 12.83417 95.69896 82.21135 -29.01195 -3.77953 31.79205 11.88833 -31.20486 74.9072 -100.05256 -59.36786 5.14682 28.00551 -8.68692 -33.83254 -136.53068 16.59735 -16.77971 -15.90781 78.11491 29.44285 38.69216 -114.01403 12.75616 -6.14722 -11.589
-1.52297 0.26341 -0.21713 900.54803 0 13.09205 -51.25846 13.3434 -7.25782 16.15859 0.12541 -7.36648 48.6894 -17.76376 11.04882 94.35101 83.83259 -28.37714 -3.99285 31.70052 12.32935 -31.15586 75.83015 -99.93857 -59.35419 5.13736 28.3743 -9.07359 -33.81705 -136.85547 16.49807 -16.56605 -15.93323 78.27528 29.06389 38.7501 -113.84322 12.78397 -6.18571 -11.63752
-1.52187 0.26306 -0.21676 900.6541 0 13.37382 -51.76356 13.62133 -7.34368 16.34987 -0.02654 -7.33228 47.39888 -18.58057 9.51966 92.76645 85.97557 -28.09713 -4.25997 31.63869 12.71326 -31.17563 76.5631 -99.85424 -59.32142 5.13001 28.67185 -9.39752 -33.80431 -137.12299 16.44775 -16.44931 -15.96543 78.39326 28.78394 38.78077 -113.6906 12.82384 -6.22849 -11.74333
-1.521 0.26298 -0.21677 900.61407 0 13.55396 -52.28026 13.74588 -7.25682 16.50122 -0.06703 -7.24238 46.24236 -19.98604 8.67818 90.60087 89.51154 -28.90943 -4.67425 31.67086 12.90605 -31.36565 76.78349 -99.86383 -59.26195 5.12941 28.7702 -9.52132 -33.79457 -137.22497 16.52914 -16.5939 -16.00799 78.39558 28.80861 38.7336 -113.59604 12.89589 -6.27821 -12.00195
-1.52022 0.26301 -0.21693 900.52891 0 13.70258 -52.79055 13.81515 -7.11174 16.63503 -0.07322 -7.14252 45.12883 -21.62544 8.09267 88.21126 93.54662 -30.08947 -5.14084 31.73395 13.03694 -31.62178 76.81151 -99.90532 -59.18567 5.13109 28.79646 -9.58034 -33.78811 -137.26997 16.66091 -16.83815 -16.05818 78.35562 28.93206 38.66025 -113.52029 12.98028 -6.33252 -12.31242
-1.51942 0.26299 -0.21702 900.47182 0 13.86715 -53.29258 13.91112 -6.99594 16.7736 -0.09648 -7.05479 44.00907 -23.15807 7.38728 85.92923 97.31669 -31.0862 -5.57924 31.7817 13.19776 -31.8472 76.92365 -99.93254 -59.11419 5.1317 28.85628 -9.67361 -33.78336 -137.34592 16.77415 -17.04549 -16.10986 78.33622 28.99919 38.60228 -113.43448 13.06001 -6.38691 -12.58843
-1.51855 0.26297 -0.2171 900.38503 0 14.02751 -53.84243 14.00183 -6.86951 16.92591 -0.11687 -6.93782 42.82044 -24.70681 6.6985 83.61179 101.264 -32.13877 -6.03743 31.83349 13.35621 -32.07827 77.05073 -99.9569 -59.05122 5.13227 28.9135 -9.74978 -33.76581 -137.40204 16.8698 -17.219 -16.14171 78.31134 29.11185 38.52953 -113.3541 13.13609 -6.43292 -12.91279
-1.51785 0.26298 -0.21724 900.34788 0 14.1882 -54.29007 14.08876 -6.75118 17.04515 -0.13377 -6.87806 41.79105 -26.27114 6.03694 81.3189 104.95359 -33.16703 -6.46645 31.88467 13.50222 -32.31223 77.09908 -99.9956 -58.96817 5.13359 28.95829 -9.84469 -33.77478 -137.48412 17.01261 -17.48389 -16.21542 78.28721 29.15472 38.48115 -113.26736 13.22221 -6.49677 -13.14852
-1.5176 0.263 -0.21749 900.46703 0 14.35631 -54.46652 14.19207 -6.66609 17.0797 -0.14976 -6.98137 41.18178 -27.83163 5.36894 79.15311 107.81677 -34.03834 -6.80083 31.92734 13.63716 -32.53747 76.99548 -100.06512 -58.82973 5.1359 28.99109 -10.01013 -33.8645 -137.66662 17.28712 -18.00368 -16.41303 78.28232 28.97423 38.50927 -113.15726 13.33728 -6.61376 -13.11858
-1.51753 0.26304 -0.21779 900.63615 0 14.52536 -54.53811 14.29114 -6.59174 17.08103 -0.163 -7.14165 40.73426 -29.39482 4.72329 77.02157 110.39713 -34.87317 -7.10373 31.96828 13.75963 -32.76313 76.8155 -100.14836 -58.67271 5.13901 29.01264 -10.19548 -33.97953 -137.8742 17.60489 -18.60724 -16.65058 78.27845 28.72175 38.56235 -113.04059 13.46114 -6.74748 -12.99878
-1.51738 0.26308 -0.21808 900.77654 0 14.69477 -54.65216 14.38314 -6.5142 17.09616 -0.1766 -7.27382 40.22087 -30.94954 4.07844 74.87168 113.10342 -35.72778 -7.42219 32.0099 13.88171 -32.98836 76.65915 -100.22627 -58.52745 5.14215 29.03662 -10.36965 -34.0771 -138.06085 17.89378 -19.15467 -16.86312 78.2697 28.50657 38.60222 -112.92764 13.57832 -6.87037 -12.92509
-1.5172 0.26307 -0.21835 900.93996 0 14.86112 -54.78995 14.51042 -6.42674 17.11657 -0.19225 -7.41539 39.67818 -32.5478 3.3933 72.72125 115.84949 -36.58598 -7.73879 32.05352 14.02694 -33.21648 76.54477 -100.30162 -58.36812 5.14376 29.0707 -10.55151 -34.1987 -138.28667 18.2231 -19.78112 -17.10483 78.27805 28.27486 38.64906 -112.81162 13.70766 -7.00748 -12.83095
-1.51715 0.26319 -0.21866 901.0689 0 15.03285 -54.85095 14.56489 -6.36424 17.11781 -0.20415 -7.55061 39.23229 -34.04717 2.79781 70.58841 118.42505 -37.41767 -8.0491 32.09153 14.12222 -33.43839 76.32494 -100.3849 -58.23318 5.14865 29.08041 -10.72178 -34.27776 -138.43647 18.47816 -20.26243 -17.29526 78.25163 28.05995 38.68763 -112.70094 13.81309 -7.11836 -12.75741
-1.5174 0.26365 -0.21902 901.08129 0 15.23298 -54.74678 14.41109 -6.35983 17.0783 -0.2004 -7.65853 39.03179 -35.31846 2.41243 68.45715 120.71329 -38.23 -8.36652 32.11948 14.07961 -33.63767 75.85486 -100.48871 -58.17671 5.16299 29.03949 -10.86505 -34.21932 -138.38001 18.5144 -20.31478 -17.33331 78.12865 27.90247 38.69771 -112.60027 13.85473 -7.15722 -12.76192
-1.51781 0.26424 -0.21942 901.05898 0 15.43611 -54.56491 14.18573 -6.382 17.01983 -0.19443 -7.75774 38.91898 -36.47916 2.12209 66.35486 122.81461 -39.00549 -8.67526 32.14056 13.98849 -33.83134 75.27863 -100.59938 -58.14439 5.18048 28.97218 -10.99434 -34.11944 -138.24455 18.47473 -20.21911 -17.31846 77.97082 27.7653 38.69867 -112.50635 13.87118 -7.1683 -12.79003
-1.51818 0.26478 -0.21982 901.05901 0 15.62897 -54.40488 13.99912 -6.39766 16.96767 -0.19338 -7.85782 38.75507 -37.66085 1.80673 64.26064 124.92549 -39.76815 -8.97678 32.1616 13.92123 -34.03082 74.73673 -100.70559 -58.09669 5.19616 28.90819 -11.12405 -34.048 -138.13921 18.47169 -20.19575 -17.32854 77.82947 27.62246 38.70365 -112.41334 13.89611 -7.18901 -12.80772
-1.51841 0.2653 -0.22018 901.03382 0 15.85931 -54.29853 13.787 -6.39011 16.92469 -0.17506 -7.97146 38.64697 -38.97136 1.41183 62.0611 127.34995 -40.65964 -9.32456 32.19676 13.84386 -34.21671 74.24864 -100.81842 -58.06656 5.21352 28.88041 -11.27994 -33.93817 -138.05942 18.46132 -20.1541 -17.33656 77.68579 27.46146 38.71001 -112.30309 13.93362 -7.22263 -12.82142
